#N canvas 606 0 1920 956 12;
#X obj 280 151 select 69 70 71 72 73 74 75 76 77 78 79 80 81 82 83
84;
#X msg 860 235 440;
#X msg 860 267 460.28;
#X msg 860 300 481.49;
#X msg 858 333 503.68;
#X msg 859 370 526.89;
#X msg 861 402 551.17;
#X msg 864 436 576.57;
#X msg 865 472 603.14;
#X msg 869 506 630.94;
#X msg 864 542 660.02;
#X msg 868 579 690.43;
#X msg 872 612 722.25;
#X msg 875 649 755.54;
#X msg 871 683 790.36;
#X msg 872 722 826.78;
#X msg 873 760 864.88;
#X msg 874 791 904.74;
#X obj 260 91 inlet;
#X obj 1069 509 outlet;
#X connect 0 0 1 0;
#X connect 0 1 2 0;
#X connect 0 2 3 0;
#X connect 0 3 4 0;
#X connect 0 4 5 0;
#X connect 0 5 6 0;
#X connect 0 6 7 0;
#X connect 0 7 8 0;
#X connect 0 8 9 0;
#X connect 0 9 10 0;
#X connect 0 10 11 0;
#X connect 0 11 12 0;
#X connect 0 12 13 0;
#X connect 0 13 14 0;
#X connect 0 14 15 0;
#X connect 0 15 16 0;
#X connect 0 16 17 0;
#X connect 1 0 19 0;
#X connect 2 0 19 0;
#X connect 3 0 19 0;
#X connect 4 0 19 0;
#X connect 5 0 19 0;
#X connect 6 0 19 0;
#X connect 7 0 19 0;
#X connect 8 0 19 0;
#X connect 9 0 19 0;
#X connect 10 0 19 0;
#X connect 11 0 19 0;
#X connect 12 0 19 0;
#X connect 13 0 19 0;
#X connect 14 0 19 0;
#X connect 15 0 19 0;
#X connect 16 0 19 0;
#X connect 17 0 19 0;
#X connect 18 0 0 0;
