#N canvas 234 27 1920 956 12;
#X obj 286 524 outlet;
#X msg 257 330 2;
#X obj 298 154 -;
#X msg 338 90 69;
#X obj 298 199 /;
#X msg 356 156 15.385;
#X obj 286 433 *;
#X msg 335 387 440;
#X floatatom 288 465 5 0 0 0 - - - 0;
#X floatatom 163 134 5 0 0 0 - - - 0;
#X floatatom 177 438 5 0 0 0 - - - 0;
#X obj 284 389 pow;
#X floatatom 332 254 5 0 0 0 - - - 0;
#X floatatom 221 205 5 0 0 0 - - - 0;
#X obj 444 15 bng 19 250 50 0 empty empty empty 0 -10 0 12 #fcfcfc #000000 #000000;
#X obj 169 72 notein;
#X connect 1 0 11 0;
#X connect 2 0 4 0;
#X connect 2 0 13 0;
#X connect 3 0 2 1;
#X connect 4 0 11 1;
#X connect 4 0 12 0;
#X connect 5 0 4 1;
#X connect 6 0 8 0;
#X connect 7 0 6 1;
#X connect 8 0 0 0;
#X connect 9 0 2 0;
#X connect 9 0 14 0;
#X connect 11 0 10 0;
#X connect 11 0 6 0;
#X connect 14 0 3 0;
#X connect 14 0 1 0;
#X connect 14 0 5 0;
#X connect 14 0 7 0;
#X connect 15 0 9 0;
