#N canvas 1088 121 943 783 12;
#X obj 319 6 notein;
#X obj 319 45 poly 3;
#X floatatom 272 90 5 0 0 0 - - - 0;
#X floatatom 338 93 5 0 0 0 - - - 0;
#X floatatom 420 94 5 0 0 0 - - - 0;
#X obj 305 157 pack f f f;
#X obj 305 202 route 1 2 3;
#X obj 103 258 unpack f f;
#X floatatom 103 301 5 0 0 0 - - - 0;
#X obj 103 324 mtof;
#X floatatom 103 362 5 0 0 0 - - - 0;
#X obj 103 385 osc~;
#X obj 104 465 *~;
#X floatatom 172 300 5 0 0 0 - - - 0;
#X obj 172 323 / 127;
#X floatatom 172 362 5 0 0 0 - - - 0;
#X obj 172 423 line~;
#X msg 172 385 \$1 250;
#X obj 316 249 unpack f f;
#X floatatom 316 292 5 0 0 0 - - - 0;
#X obj 316 315 mtof;
#X floatatom 316 353 5 0 0 0 - - - 0;
#X obj 316 376 osc~;
#X obj 317 456 *~;
#X floatatom 385 291 5 0 0 0 - - - 0;
#X obj 385 314 / 127;
#X floatatom 385 353 5 0 0 0 - - - 0;
#X obj 385 414 line~;
#X msg 385 376 \$1 250;
#X obj 501 250 unpack f f;
#X floatatom 501 293 5 0 0 0 - - - 0;
#X obj 501 316 mtof;
#X floatatom 501 354 5 0 0 0 - - - 0;
#X obj 501 377 osc~;
#X obj 502 457 *~;
#X floatatom 570 292 5 0 0 0 - - - 0;
#X obj 570 315 / 127;
#X floatatom 570 354 5 0 0 0 - - - 0;
#X obj 570 415 line~;
#X msg 570 377 \$1 250;
#X obj 318 545 *~;
#X obj 319 629 dac~;
#X obj 700 508 ctlin 8;
#X floatatom 700 548 5 0 0 0 - - - 0;
#X obj 700 580 / 127;
#X floatatom 700 614 5 0 0 0 - - - 0;
#X obj 703 649 hsl 162 19 0 127 0 0 empty empty empty -2 -10 0 12 #fcfcfc #000000 #000000 0 1;
#X msg 700 673 \$1 250;
#X obj 699 705 line~;
#X obj 436 626 tgl 19 0 empty empty empty 0 -10 0 12 #fcfcfc #000000 #000000 0 1;
#X obj 436 650 metro 85;
#X obj 436 691 tabwrite~ onda;
#N canvas 0 50 450 250 (subpatch) 0;
#X array onda 100 float 3;
#A 0 0 0 0 0 0 0 0 0 0 0 0 0 0 0 0 0 0 0 0 0 0 0 0 0 0 0 0 0 0 0 0 0 0 0 0 0 0 0 0 0 0 0 0 0 0 0 0 0 0 0 0 0 0 0 0 0 0 0 0 0 0 0 0 0 0 0 0 0 0 0 0 0 0 0 0 0 0 0 0 0 0 0 0 0 0 0 0 0 0 0 0 0 0 0 0 0 0 0 0 0;
#X coords 0 1 100 -1 200 140 1;
#X restore 69 573 graph;
#X connect 0 0 1 0;
#X connect 0 1 1 1;
#X connect 1 0 2 0;
#X connect 1 1 3 0;
#X connect 1 2 4 0;
#X connect 2 0 5 0;
#X connect 3 0 5 1;
#X connect 4 0 5 2;
#X connect 5 0 6 0;
#X connect 6 0 7 0;
#X connect 6 1 18 0;
#X connect 6 2 29 0;
#X connect 7 0 8 0;
#X connect 7 1 13 0;
#X connect 8 0 9 0;
#X connect 9 0 10 0;
#X connect 10 0 11 0;
#X connect 11 0 12 0;
#X connect 12 0 40 0;
#X connect 13 0 14 0;
#X connect 14 0 15 0;
#X connect 15 0 17 0;
#X connect 16 0 12 1;
#X connect 17 0 16 0;
#X connect 18 0 19 0;
#X connect 18 1 24 0;
#X connect 19 0 20 0;
#X connect 20 0 21 0;
#X connect 21 0 22 0;
#X connect 22 0 23 0;
#X connect 23 0 40 0;
#X connect 24 0 25 0;
#X connect 25 0 26 0;
#X connect 26 0 28 0;
#X connect 27 0 23 1;
#X connect 28 0 27 0;
#X connect 29 0 30 0;
#X connect 29 1 35 0;
#X connect 30 0 31 0;
#X connect 31 0 32 0;
#X connect 32 0 33 0;
#X connect 33 0 34 0;
#X connect 34 0 40 0;
#X connect 35 0 36 0;
#X connect 36 0 37 0;
#X connect 37 0 39 0;
#X connect 38 0 34 1;
#X connect 39 0 38 0;
#X connect 40 0 41 0;
#X connect 40 0 41 1;
#X connect 40 0 51 0;
#X connect 42 0 43 0;
#X connect 43 0 44 0;
#X connect 44 0 45 0;
#X connect 45 0 46 0;
#X connect 46 0 47 0;
#X connect 47 0 48 0;
#X connect 48 0 40 1;
#X connect 49 0 53 0;
#X connect 49 0 53 0;
