#N canvas 156 156 450 300 12;
#X obj 114 47 unpack f f;
#X floatatom 114 77 5 0 0 0 - - - 0;
#X obj 114 100 mtof;
#X floatatom 114 138 5 0 0 0 - - - 0;
#X obj 114 161 osc~;
#X obj 115 241 *~;
#X floatatom 183 76 5 0 0 0 - - - 0;
#X obj 183 99 / 127;
#X floatatom 183 138 5 0 0 0 - - - 0;
#X obj 183 199 line~;
#X msg 183 161 \$1 250;
#X obj 114 16 inlet;
#X obj 114 274 outlet~;
#X connect 0 0 1 0;
#X connect 0 1 6 0;
#X connect 1 0 2 0;
#X connect 2 0 3 0;
#X connect 3 0 4 0;
#X connect 4 0 5 0;
#X connect 5 0 12 0;
#X connect 6 0 7 0;
#X connect 7 0 8 0;
#X connect 8 0 10 0;
#X connect 9 0 5 1;
#X connect 10 0 9 0;
#X connect 11 0 0 0;
