#N canvas 684 444 450 450 12;
#X obj 112 28 inlet;
#N canvas 437 655 450 300 oscillators 1;
#X obj 67 15 inlet;
#X obj 67 113 phasor~;
#X obj 65 195 outlet~;
#X floatatom 67 43 5 0 0 0 - - - 0;
#X obj 228 117 * 1.001;
#X obj 228 166 phasor~;
#X obj 66 155 expr~ $v1 *2 + 1;
#X obj 228 204 expr~ $v1 *2 + 1;
#N canvas 865 171 1920 997 alpha 0;
#X obj 152 57 inlet;
#X obj 286 524 outlet;
#X msg 257 330 2;
#X obj 298 154 -;
#X msg 338 90 69;
#X obj 298 199 /;
#X msg 356 156 15.385;
#X obj 286 433 *;
#X msg 335 387 440;
#X floatatom 288 465 5 0 0 0 - - - 0;
#X floatatom 163 134 5 0 0 0 - - - 0;
#X floatatom 177 438 5 0 0 0 - - - 0;
#X obj 284 389 pow;
#X floatatom 332 254 5 0 0 0 - - - 0;
#X floatatom 221 205 5 0 0 0 - - - 0;
#X obj 163 180 bng 19 250 50 0 empty empty empty 0 -10 0 12 #fcfcfc #000000 #000000;
#X obj 232 100 print;
#X obj 366 503 print;
#X connect 0 0 10 0;
#X connect 0 0 16 0;
#X connect 2 0 12 0;
#X connect 3 0 5 0;
#X connect 3 0 14 0;
#X connect 4 0 3 1;
#X connect 5 0 12 1;
#X connect 5 0 13 0;
#X connect 6 0 5 1;
#X connect 7 0 9 0;
#X connect 8 0 7 1;
#X connect 9 0 1 0;
#X connect 9 0 17 0;
#X connect 10 0 3 0;
#X connect 10 0 15 0;
#X connect 12 0 11 0;
#X connect 12 0 7 0;
#X connect 15 0 4 0;
#X connect 15 0 2 0;
#X connect 15 0 8 0;
#X connect 15 0 6 0;
#X restore 67 73 pd alpha;
#N canvas 865 171 1920 997 beta 0;
#X obj 152 57 inlet;
#X obj 286 524 outlet;
#X msg 257 330 2;
#X obj 298 154 -;
#X msg 338 90 69;
#X obj 298 199 /;
#X obj 286 433 *;
#X msg 335 387 440;
#X floatatom 288 465 5 0 0 0 - - - 0;
#X floatatom 163 134 5 0 0 0 - - - 0;
#X floatatom 177 438 5 0 0 0 - - - 0;
#X obj 284 389 pow;
#X floatatom 332 254 5 0 0 0 - - - 0;
#X floatatom 221 205 5 0 0 0 - - - 0;
#X obj 163 180 bng 19 250 50 0 empty empty empty 0 -10 0 12 #fcfcfc #000000 #000000;
#X obj 232 100 print;
#X obj 366 503 print;
#X msg 356 156 18.809;
#X connect 0 0 9 0;
#X connect 0 0 15 0;
#X connect 2 0 11 0;
#X connect 3 0 5 0;
#X connect 3 0 13 0;
#X connect 4 0 3 1;
#X connect 5 0 11 1;
#X connect 5 0 12 0;
#X connect 6 0 8 0;
#X connect 7 0 6 1;
#X connect 8 0 1 0;
#X connect 8 0 16 0;
#X connect 9 0 3 0;
#X connect 9 0 14 0;
#X connect 11 0 10 0;
#X connect 11 0 6 0;
#X connect 14 0 4 0;
#X connect 14 0 2 0;
#X connect 14 0 7 0;
#X connect 14 0 17 0;
#X connect 17 0 5 1;
#X restore 198 72 pd beta;
#X connect 0 0 3 0;
#X connect 1 0 6 0;
#X connect 3 0 8 0;
#X connect 4 0 5 0;
#X connect 5 0 7 0;
#X connect 6 0 2 0;
#X connect 8 0 1 0;
#X connect 8 0 4 0;
#X restore 112 143 pd oscillators;
#X obj 112 104 stripnote;
#X obj 112 67 unpack 0 0;
#X obj 109 273 outlet~;
#N canvas 918 399 450 300 filters 0;
#X obj 37 37 inlet~;
#X obj 38 136 bob~;
#X obj 39 169 outlet~;
#X obj 64 73 loadbang;
#X msg 64 101 300;
#X msg 101 102 1.5;
#X obj 195 34 receive cutoff;
#X floatatom 195 62 5 0 0 0 - - - 0;
#X obj 195 85 / 127;
#X obj 195 109 pow 4;
#X obj 195 135 * 10000;
#X obj 195 162 + 20;
#X connect 0 0 1 0;
#X connect 1 0 2 0;
#X connect 3 0 4 0;
#X connect 3 0 5 0;
#X connect 4 0 1 1;
#X connect 5 0 1 2;
#X connect 6 0 7 0;
#X connect 7 0 8 0;
#X connect 8 0 9 0;
#X connect 9 0 10 0;
#X connect 10 0 11 0;
#X connect 11 0 1 1;
#X restore 112 183 pd filters;
#X text 211 193 We can modify or even quit the pd filters;
#N canvas 1145 551 514 401 amplifiers 0;
#X obj 130 21 inlet;
#X obj 243 24 inlet;
#X obj 243 54 sel 0;
#X obj 243 179 bng 19 250 50 0 empty empty empty 0 -10 0 12 #fcfcfc #000000 #000000;
#X obj 243 219 f;
#X msg 243 250 0 \$1;
#X floatatom 296 108 5 0 0 0 - - - 0;
#X obj 296 131 * 20;
#X msg 359 159 700;
#X obj 359 106 loadbang;
#X floatatom 295 163 5 0 0 0 - - - 0;
#X obj 95 125 pack;
#X obj 95 194 vline~;
#X msg 95 149 \$1 5 \, \$2 200 5;
#X obj 96 231 *~;
#X obj 64 336 outlet~;
#X obj 62 20 inlet~;
#X obj 130 92 * 0.5;
#X obj 62 293 *~;
#X obj 96 264 *~;
#X obj 296 76 receive releaseRate;
#X obj 160 304 receive volume;
#X obj 130 58 / 127;
#X obj 160 328 / 16;
#X connect 0 0 22 0;
#X connect 1 0 2 0;
#X connect 2 0 3 0;
#X connect 3 0 4 0;
#X connect 4 0 5 0;
#X connect 5 0 12 0;
#X connect 6 0 7 0;
#X connect 7 0 10 0;
#X connect 8 0 4 1;
#X connect 9 0 8 0;
#X connect 10 0 4 1;
#X connect 11 0 13 0;
#X connect 12 0 14 0;
#X connect 12 0 14 1;
#X connect 13 0 12 0;
#X connect 14 0 19 0;
#X connect 16 0 18 0;
#X connect 17 0 11 1;
#X connect 18 0 15 0;
#X connect 19 0 18 1;
#X connect 20 0 6 0;
#X connect 21 0 23 0;
#X connect 22 0 11 0;
#X connect 22 0 17 0;
#X connect 23 0 19 1;
#X restore 111 220 pd amplifiers;
#X connect 0 0 3 0;
#X connect 1 0 5 0;
#X connect 2 0 1 0;
#X connect 2 1 7 1;
#X connect 3 0 2 0;
#X connect 3 1 2 1;
#X connect 3 1 7 2;
#X connect 5 0 7 0;
#X connect 7 0 4 0;
