#N canvas 605 530 450 300 12;
#X obj 112 28 inlet;
#N canvas 591 636 450 300 oscillators 0;
#X obj 67 15 inlet;
#X obj 67 113 phasor~;
#X obj 65 195 outlet~;
#X floatatom 67 43 5 0 0 0 - - - 0;
#X obj 228 117 * 1.001;
#X obj 228 166 phasor~;
#X obj 66 155 expr~ $v1 *2 + 1;
#X obj 228 204 expr~ $v1 *2 + 1;
#X obj 67 73 mtof;
#X connect 0 0 3 0;
#X connect 1 0 6 0;
#X connect 3 0 8 0;
#X connect 4 0 5 0;
#X connect 5 0 7 0;
#X connect 6 0 2 0;
#X connect 8 0 1 0;
#X connect 8 0 4 0;
#X restore 112 159 pd oscillators;
#X obj 112 117 stripnote;
#X obj 112 77 unpack 0 0;
#X obj 112 223 outlet~;
#N canvas 918 399 450 300 filters 0;
#X obj 37 37 inlet~;
#X obj 38 136 bob~;
#X obj 39 169 outlet~;
#X obj 64 73 loadbang;
#X msg 64 101 300;
#X msg 101 102 1.5;
#X obj 195 34 receive cutoff;
#X floatatom 195 62 5 0 0 0 - - - 0;
#X obj 195 85 / 127;
#X obj 195 109 pow 4;
#X obj 195 135 * 10000;
#X obj 195 162 + 20;
#X connect 0 0 1 0;
#X connect 1 0 2 0;
#X connect 3 0 4 0;
#X connect 3 0 5 0;
#X connect 4 0 1 1;
#X connect 5 0 1 2;
#X connect 6 0 7 0;
#X connect 7 0 8 0;
#X connect 8 0 9 0;
#X connect 9 0 10 0;
#X connect 10 0 11 0;
#X connect 11 0 1 1;
#X restore 112 191 pd filters;
#X text 211 193 We can modify or even quit the pd filters;
#X connect 0 0 3 0;
#X connect 1 0 5 0;
#X connect 2 0 1 0;
#X connect 3 0 2 0;
#X connect 3 1 2 1;
#X connect 5 0 4 0;
