#N canvas 1186 437 450 300 12;
#X obj 109 52 notein;
#X obj 109 180 pack 0 0 0;
#X obj 109 143 -1;
#X obj 109 104 poly 4 1;
#X obj 109 220 clone mono-synth 1;
#X obj 109 252 dac~;
#X connect 0 0 3 0;
#X connect 0 1 3 1;
#X connect 1 0 4 0;
#X connect 2 0 1 0;
#X connect 3 0 2 0;
#X connect 3 1 1 1;
#X connect 3 2 1 2;
#X connect 4 0 5 0;
#X connect 4 0 5 1;
