#N canvas 676 217 465 539 12;
#X obj 109 52 notein;
#X obj 108 364 dac~;
#X obj 109 141 -1;
#X obj 109 230 pack 0 0 0;
#X floatatom 142 183 5 0 0 0 - - - 0;
#X obj 109 260 clone mono-synth 100;
#X obj 109 103 poly 100 1;
#X obj 286 66 send cutoff1;
#X obj 287 137 send releaseRate;
#X obj 287 96 ctlin 16;
#X obj 286 25 ctlin 19;
#X connect 0 0 6 0;
#X connect 0 1 6 1;
#X connect 2 0 3 0;
#X connect 3 0 5 0;
#X connect 4 0 3 1;
#X connect 5 0 1 0;
#X connect 5 0 1 1;
#X connect 6 0 2 0;
#X connect 6 1 4 0;
#X connect 6 2 3 2;
#X connect 9 0 8 0;
#X connect 10 0 7 0;
