#N canvas 676 217 465 539 12;
#X obj 109 52 notein;
#X obj 108 364 dac~;
#X obj 109 141 -1;
#X obj 109 230 pack 0 0 0;
#X floatatom 142 183 5 0 0 0 - - - 0;
#X obj 286 66 send cutoff1;
#X obj 287 137 send releaseRate;
#X obj 287 96 ctlin 16;
#X obj 286 25 ctlin 19;
#X obj 288 166 ctlin 17;
#X obj 288 207 send volume;
#X obj 109 103 poly 10 1;
#X obj 109 260 clone mono-synth 10;
#X connect 0 0 11 0;
#X connect 0 1 11 1;
#X connect 2 0 3 0;
#X connect 3 0 12 0;
#X connect 4 0 3 1;
#X connect 7 0 6 0;
#X connect 8 0 5 0;
#X connect 9 0 10 0;
#X connect 11 0 2 0;
#X connect 11 1 4 0;
#X connect 11 2 3 2;
#X connect 12 0 1 0;
#X connect 12 0 1 1;
