#N canvas 1181 350 450 322 12;
#X obj 107 150 osc~;
#X obj 108 192 dac~;
#X obj 107 25 notein;
#X floatatom 107 60 5 0 0 0 - - - 0;
#X obj 107 87 mtof;
#X floatatom 107 119 5 0 0 0 - - - 0;
#X connect 0 0 1 0;
#X connect 0 0 1 1;
#X connect 2 0 3 0;
#X connect 3 0 4 0;
#X connect 4 0 5 0;
#X connect 5 0 0 0;
