#N canvas 693 294 790 397 12;
#X obj 112 28 inlet;
#N canvas 685 460 726 411 oscillators 0;
#X obj 67 15 inlet;
#X obj 67 153 phasor~;
#X obj 65 309 outlet~;
#X floatatom 67 43 5 0 0 0 - - - 0;
#X obj 66 195 expr~ $v1 *2 + 1;
#N canvas -98 98 1920 997 alpha 0;
#X obj 152 57 inlet;
#X obj 286 524 outlet;
#X msg 257 330 2;
#X obj 298 154 -;
#X msg 338 90 69;
#X obj 298 199 /;
#X msg 356 156 15.385;
#X obj 286 433 *;
#X msg 335 387 440;
#X floatatom 288 465 5 0 0 0 - - - 0;
#X floatatom 163 134 5 0 0 0 - - - 0;
#X floatatom 177 438 5 0 0 0 - - - 0;
#X obj 284 389 pow;
#X floatatom 332 254 5 0 0 0 - - - 0;
#X floatatom 221 205 5 0 0 0 - - - 0;
#X obj 163 180 bng 19 250 50 0 empty empty empty 0 -10 0 12 #fcfcfc
#000000 #000000;
#X obj 232 100 print;
#X obj 366 503 print;
#X text 436 146 Conversion from MIDI to Alpha (formula is the same
as ET but echanging 12 steps/octave with 15.385 steps/octave);
#X connect 0 0 10 0;
#X connect 0 0 16 0;
#X connect 2 0 12 0;
#X connect 3 0 5 0;
#X connect 3 0 14 0;
#X connect 4 0 3 1;
#X connect 5 0 12 1;
#X connect 5 0 13 0;
#X connect 6 0 5 1;
#X connect 7 0 9 0;
#X connect 8 0 7 1;
#X connect 9 0 1 0;
#X connect 9 0 17 0;
#X connect 10 0 3 0;
#X connect 10 0 15 0;
#X connect 12 0 11 0;
#X connect 12 0 7 0;
#X connect 15 0 4 0;
#X connect 15 0 2 0;
#X connect 15 0 8 0;
#X connect 15 0 6 0;
#X restore 67 73 pd alpha;
#N canvas 923 167 1920 997 beta 0;
#X obj 152 57 inlet;
#X obj 286 524 outlet;
#X msg 257 330 2;
#X obj 298 154 -;
#X msg 338 90 69;
#X obj 298 199 /;
#X obj 286 433 *;
#X msg 335 387 440;
#X floatatom 288 465 5 0 0 0 - - - 0;
#X floatatom 163 134 5 0 0 0 - - - 0;
#X floatatom 177 438 5 0 0 0 - - - 0;
#X obj 284 389 pow;
#X floatatom 332 254 5 0 0 0 - - - 0;
#X floatatom 221 205 5 0 0 0 - - - 0;
#X obj 163 180 bng 19 250 50 0 empty empty empty 0 -10 0 12 #fcfcfc
#000000 #000000;
#X obj 232 100 print;
#X obj 366 503 print;
#X msg 356 156 18.809;
#X connect 0 0 9 0;
#X connect 0 0 15 0;
#X connect 2 0 11 0;
#X connect 3 0 5 0;
#X connect 3 0 13 0;
#X connect 4 0 3 1;
#X connect 5 0 11 1;
#X connect 5 0 12 0;
#X connect 6 0 8 0;
#X connect 7 0 6 1;
#X connect 8 0 1 0;
#X connect 8 0 16 0;
#X connect 9 0 3 0;
#X connect 9 0 14 0;
#X connect 11 0 10 0;
#X connect 11 0 6 0;
#X connect 14 0 4 0;
#X connect 14 0 2 0;
#X connect 14 0 7 0;
#X connect 14 0 17 0;
#X connect 17 0 5 1;
#X restore 225 74 pd beta;
#X obj 68 279 *~;
#X obj 228 157 * 1.01;
#X obj 228 206 phasor~;
#X obj 228 244 *~ 0.5;
#X text 314 193 Two sawtooth waves added together (one being slightly
detuned);
#X text 342 86 Subpatches converting frequencies from MIDI note to
Alpha/Beta based on the input;
#X connect 0 0 3 0;
#X connect 1 0 4 0;
#X connect 3 0 5 0;
#X connect 4 0 7 0;
#X connect 5 0 8 0;
#X connect 5 0 1 0;
#X connect 7 0 2 0;
#X connect 8 0 9 0;
#X connect 9 0 10 0;
#X connect 10 0 7 1;
#X restore 112 143 pd oscillators;
#X obj 112 104 stripnote;
#X obj 112 67 unpack 0 0;
#X obj 110 319 outlet~;
#N canvas 1038 371 797 300 filters 0;
#X obj 80 29 inlet~;
#X obj 80 204 outlet~;
#X obj 236 69 receive cutoff1;
#X obj 79 171 lop~ 1000;
#X floatatom 180 129 5 0 0 0 - - - 0;
#X connect 0 0 3 0;
#X connect 2 0 4 0;
#X connect 3 0 1 0;
#X connect 4 0 3 1;
#X restore 112 183 pd filters;
#N canvas 1145 551 514 401 amplifiers 0;
#X obj 130 21 inlet;
#X obj 243 24 inlet;
#X obj 243 54 sel 0;
#X obj 243 179 bng 19 250 50 0 empty empty empty 0 -10 0 12 #fcfcfc
#000000 #000000;
#X obj 243 219 f;
#X msg 243 250 0 \$1;
#X floatatom 296 108 5 0 0 0 - - - 0;
#X obj 296 131 * 20;
#X msg 359 159 700;
#X obj 359 106 loadbang;
#X floatatom 295 163 5 0 0 0 - - - 0;
#X obj 95 125 pack;
#X obj 95 194 vline~;
#X msg 95 149 \$1 5 \, \$2 200 5;
#X obj 96 231 *~;
#X obj 64 336 outlet~;
#X obj 62 20 inlet~;
#X obj 130 92 * 0.5;
#X obj 62 293 *~;
#X obj 96 264 *~;
#X obj 296 76 receive releaseRate;
#X obj 160 304 receive volume;
#X obj 130 58 / 127;
#X obj 160 328 / 16;
#X connect 0 0 22 0;
#X connect 1 0 2 0;
#X connect 2 0 3 0;
#X connect 3 0 4 0;
#X connect 4 0 5 0;
#X connect 5 0 12 0;
#X connect 6 0 7 0;
#X connect 7 0 10 0;
#X connect 8 0 4 1;
#X connect 9 0 8 0;
#X connect 10 0 4 1;
#X connect 11 0 13 0;
#X connect 12 0 14 0;
#X connect 12 0 14 1;
#X connect 13 0 12 0;
#X connect 14 0 19 0;
#X connect 16 0 18 0;
#X connect 17 0 11 1;
#X connect 18 0 15 0;
#X connect 19 0 18 1;
#X connect 20 0 6 0;
#X connect 21 0 23 0;
#X connect 22 0 11 0;
#X connect 22 0 17 0;
#X connect 23 0 19 1;
#X restore 112 266 pd amplifiers;
#X text 280 58 Mono synth implemented in a modular way: oscillators
\, filter \, amplifier \, envelopes;
#X connect 0 0 3 0;
#X connect 1 0 5 0;
#X connect 2 0 1 0;
#X connect 2 1 6 1;
#X connect 3 0 2 0;
#X connect 3 1 2 1;
#X connect 3 1 6 2;
#X connect 5 0 6 0;
#X connect 6 0 4 0;
